<?xml version="1.0" encoding="UTF-8"?>
<!DOCTYPE svg PUBLIC "-//W3C//DTD SVG 1.1//EN" "http://www.w3.org/Graphics/SVG/1.1/DTD/svg11.dtd">
<!-- Creator: CorelDRAW X8 -->
<svg xmlns="http://www.w3.org/2000/svg" xml:space="preserve" width="210mm" height="201.753mm" version="1.1" style="shape-rendering:geometricPrecision; text-rendering:geometricPrecision; image-rendering:optimizeQuality; fill-rule:evenodd; clip-rule:evenodd"
viewBox="0 0 21000 20175"
 xmlns:xlink="http://www.w3.org/1999/xlink">
 <defs>
  <style type="text/css">
   <![CDATA[
    .fil0 {fill:#F7B320}
   ]]>
  </style>
 </defs>
 <g id="Camada_x0020_1">
  <metadata id="CorelCorpID_0Corel-Layer"/>
  <g id="_734261117568">
   <g>
    <path class="fil0" d="M20778 5811c185,232 254,510 208,834l-880 5051c-31,263 -151,479 -359,649 -209,170 -444,255 -707,255l-12835 0 -254 1436 12232 0c293,0 548,104 764,313 217,208 325,467 325,776 0,309 -108,567 -325,776 -216,208 -471,313 -764,313l-13530 0c-324,0 -602,-132 -834,-394 -216,-263 -301,-564 -255,-904l580 -3150 -881 -8850 -2502 -788c-293,-93 -506,-270 -637,-533 -131,-262 -158,-540 -81,-834 93,-293 274,-506 544,-637 271,-131 545,-158 823,-81l3197 1019c201,62 367,178 498,348 131,170 212,363 243,579l186 1761 14502 1621c325,47 572,193 742,440zm-14480 11005c463,0 857,162 1182,487 324,324 486,718 486,1181 0,463 -162,861 -486,1193 -325,332 -719,498 -1182,498 -463,0 -857,-166 -1181,-498 -325,-332 -487,-730 -487,-1193 0,-463 162,-857 487,-1181 324,-325 718,-487 1181,-487zm9892 0c464,0 858,162 1182,487 324,324 487,718 487,1181 0,463 -163,861 -487,1193 -324,332 -718,498 -1182,498 -463,0 -857,-166 -1181,-498 -324,-332 -487,-730 -487,-1193 0,-463 163,-857 487,-1181 324,-325 718,-487 1181,-487z"/>
   </g>
  </g>
  <g id="_734261118560">
  </g>
  <g id="_734261118784">
  </g>
  <g id="_734261117184">
  </g>
  <g id="_734261118528">
  </g>
  <g id="_734261115712">
  </g>
  <g id="_734261116544">
  </g>
  <g id="_734261116480">
  </g>
  <g id="_734261116064">
  </g>
  <g id="_734261116160">
  </g>
  <g id="_734261116832">
  </g>
  <g id="_734261116096">
  </g>
  <g id="_734261113376">
  </g>
  <g id="_734261114816">
  </g>
  <g id="_734261114880">
  </g>
  <g id="_734261113632">
  </g>
 </g>
</svg>
