<?xml version="1.0" encoding="UTF-8"?>
<!DOCTYPE svg PUBLIC "-//W3C//DTD SVG 1.1//EN" "http://www.w3.org/Graphics/SVG/1.1/DTD/svg11.dtd">
<!-- Creator: CorelDRAW X8 -->
<svg xmlns="http://www.w3.org/2000/svg" xml:space="preserve" width="400mm" height="400mm" version="1.1" style="shape-rendering:geometricPrecision; text-rendering:geometricPrecision; image-rendering:optimizeQuality; fill-rule:evenodd; clip-rule:evenodd"
viewBox="0 0 40000 40000"
 xmlns:xlink="http://www.w3.org/1999/xlink">
 <defs>
  <style type="text/css">
   <![CDATA[
    .str0 {stroke:#E6E7E8;stroke-width:7.62}
    .str1 {stroke:#FBB22F;stroke-width:7.62}
    .fil5 {fill:#FEFEFE}
    .fil8 {fill:#D2D3D5}
    .fil7 {fill:#FFFBD6}
    .fil6 {fill:#FFF688}
    .fil4 {fill:#FFF212}
    .fil1 {fill:#FBB22F}
    .fil0 {fill:#D4923A}
    .fil10 {fill:#C29042}
    .fil2 {fill:#F5AA20}
    .fil3 {fill:white}
    .fil9 {fill:#FFF688;fill-rule:nonzero}
    .fil12 {fill:#FFDD21;fill-rule:nonzero}
    .fil11 {fill:#FBB22F;fill-rule:nonzero}
   ]]>
  </style>
 </defs>
 <g id="Camada_x0020_1">
  <metadata id="CorelCorpID_0Corel-Layer"/>
  <g id="_734261467312">
   <path class="fil0" d="M16719 29224l-452 116c-1,-1 -366,-204 -452,-267 -211,-157 -393,-240 -608,-376 565,0 1089,132 1506,513l6 14z"/>
   <path class="fil1" d="M17944 28997c0,146 1,291 1,436 -100,-52 -200,-105 -301,-157 101,105 201,210 302,314 1,233 1,466 2,698 -190,-142 -426,-254 -780,-287 326,125 573,311 781,527 0,37 0,73 0,110l-1928 122c175,-166 159,-158 355,-289 9,-6 64,-51 69,-59 -5,-157 -453,-175 -649,-373 -161,-164 -258,-242 -396,-435 -48,-68 -83,-121 -111,-205 56,-12 587,187 873,-50 97,-80 285,-175 409,-189 161,-19 636,75 702,20 4,-128 -144,-169 -144,-459 154,196 621,68 815,276z"/>
   <path class="fil1" d="M16856 28786c-291,-90 -149,86 -138,233l8 13 -13 -7c-20,-10 -168,-106 -180,-111 -186,-78 -235,-191 -334,-354 354,57 185,-24 185,-409 0,-157 55,-209 68,-282 47,33 383,291 383,329 0,131 -48,123 -48,301 -149,-53 -289,-447 -210,-88 19,88 221,298 279,375z"/>
   <path class="fil1" d="M16897 27486c-166,130 -183,302 -111,486 9,25 38,125 118,130 65,-131 62,-473 169,-30l2 23c83,3 160,-183 198,-219 -123,-267 -349,-293 -376,-390z"/>
   <path class="fil1" d="M17937 28314c-4,-59 -86,-250 -81,-310l-9 12c-6,-64 -283,-263 -358,-360l-10 -13c0,278 -259,342 -247,596 1,17 -20,68 -20,96 -37,-12 -185,-149 -212,-179 -44,152 -159,416 -55,554 6,9 72,230 75,247 -38,-32 -319,-194 -244,-75 28,43 61,166 102,204l12 8c68,0 238,-12 294,14 -105,-96 -89,-462 -89,-609 41,51 156,171 219,178 91,-69 249,-348 260,-457 1,-16 8,-116 14,-118 124,82 57,94 271,190 0,0 77,22 78,22z"/>
   <path class="fil1" d="M17937 28971l-492 -126c-4,-66 230,-296 259,-538 34,31 294,197 293,199 -24,58 -92,419 -60,465z"/>
   <path class="fil2" d="M30876 5057c226,-1129 1210,-1620 2628,-1745 -1397,1985 -2794,3969 -4191,5954 -361,-1147 343,-890 515,-1335 -816,70 -1085,-331 -893,-1129 348,190 325,371 602,425 10,2 624,55 635,54 58,-108 -21,-318 37,-426 62,-114 261,-126 323,-241 -418,-1728 -1901,-1180 -2439,-1848 948,-684 1881,-804 2783,291zm-21788 -2c-226,-1129 -1206,-1620 -2618,-1745 1392,1985 2783,3969 4174,5954 360,-1146 -342,-890 -513,-1335 813,70 1081,-331 890,-1129 -347,190 -324,372 -600,425 -9,2 -622,55 -632,54 -58,-107 21,-318 -37,-426 -62,-114 -260,-126 -322,-241 416,-1728 1893,-1180 2429,-1848 -944,-684 -1873,-804 -2771,291zm9400 -2335c-137,-1108 332,-2022 1472,-2720l0 2c1144,698 1615,1611 1477,2720 1259,-389 2119,-91 2302,1369 -1198,-531 -2210,-280 -3110,444 -14,146 83,317 68,463 -14,139 -139,253 -154,393 298,465 802,331 1203,496 -244,461 -762,375 -1305,239 145,172 214,327 231,471 31,243 -258,403 -231,659 356,-176 787,-304 1105,-534 450,-323 786,-729 1334,-715 -26,476 -275,781 -172,1180 380,-298 696,-203 962,206 527,-879 1895,57 1580,-2635 1306,296 1718,1038 1100,2292 1219,330 1678,1073 1889,1951 275,170 550,342 825,513 -367,593 -733,1186 -1100,1779 -2574,-1123 -5248,-1671 -8005,-1745l0 -2c-2745,74 -5408,622 -7972,1745 -365,-593 -729,-1186 -1094,-1779 273,-171 547,-342 821,-513 210,-878 667,-1621 1882,-1950 -616,-1255 -206,-1996 1094,-2293 -313,2692 1050,1756 1574,2635 265,-409 580,-504 958,-206 103,-399 -145,-704 -171,-1180 546,-13 881,392 1328,715 318,230 747,359 1102,534 26,-256 -261,-415 -231,-659 17,-144 86,-298 231,-471 -542,137 -1058,222 -1301,-239 400,-165 902,-31 1198,-496 -14,-139 -139,-253 -153,-393 -15,-145 82,-317 67,-462 -896,-725 -1903,-976 -3096,-445 182,-1459 1038,-1758 2292,-1369z"/>
   <path class="fil1" d="M6950 6441c-1882,633 -2807,1950 -2772,3952 1620,-772 2841,-1856 2772,-3952zm-1651 30776l443 75c78,-44 156,-90 235,-139 115,-72 207,-130 302,-189 501,-315 1013,-637 1548,-899 -148,5 -302,9 -464,13 -213,4 -438,6 -677,6 -1089,760 -1765,150 -2662,270 581,-550 1540,-524 2560,-406 276,0 534,-2 777,-7 281,-5 543,-14 789,-25 321,-138 651,-252 992,-327 37,-7 73,16 81,53 8,37 -15,73 -52,81 -326,71 -642,179 -951,312 -43,127 -56,262 -69,398 -14,154 -29,309 -87,460 -49,128 -138,244 -227,360 -60,78 -120,157 -164,235 -43,443 508,954 -706,1261 -224,-721 -19,-1184 621,-1384 42,-66 91,-130 141,-195 83,-108 166,-216 207,-326 52,-135 66,-280 79,-424 10,-105 20,-209 44,-313 -592,272 -1156,626 -1708,972 -107,68 -216,136 -302,190 -77,48 -155,94 -233,137l-99 327c590,487 302,937 -666,1358 -237,-334 -111,-769 617,-1372l84 -277c-144,79 -287,153 -430,225 -503,258 -996,510 -1481,1019 206,1017 -1120,858 -1647,1312 63,-599 541,-1064 1512,-1368 40,-44 81,-86 122,-126l-1126 99c-674,491 -1539,644 -2578,488 653,-506 1520,-667 2568,-539l1195 -105c321,-306 645,-512 973,-692l-706 -8c-461,456 -1197,608 -2268,386 786,-548 1478,-616 2123,-439l944 11c102,-54 205,-106 307,-159 136,-69 272,-139 409,-214l-484 -82c-703,198 -1383,250 -1982,-177 825,-271 1525,-208 2122,137l-26 7zm-1054 -4281c552,-60 1101,-90 1648,-114 -95,-30 -192,-61 -289,-94 -185,-63 -370,-130 -555,-202 -1047,10 -2110,-67 -3283,-808 1148,-122 2222,150 3253,649 212,85 421,161 629,232 220,74 441,142 665,206l57 -2c1028,-41 2052,-82 3071,-275 -168,-57 -343,-107 -523,-152 -210,-52 -427,-97 -649,-137 -733,484 -1413,85 -2123,180 437,-442 1285,-458 2292,-308 -6,6 -13,11 -19,17 180,34 358,72 531,115 267,66 522,144 762,239l1 1c569,158 1091,380 1610,601 1092,464 2169,923 3621,747 37,-4 71,22 76,60 4,37 -23,71 -60,76 -1487,180 -2582,-286 -3691,-758 -103,-44 -206,-87 -309,-131 -283,14 -560,45 -832,97 -161,30 -321,68 -478,113 -397,1147 -1293,667 -1965,893 490,-710 1119,-1061 1902,-1017 170,-49 342,-90 516,-124 188,-35 379,-61 572,-79 -319,-128 -645,-248 -986,-344 -254,54 -508,98 -762,134 -472,272 -966,469 -1460,666 -181,72 -361,143 -543,220 -543,835 -2003,409 -2968,664 885,-1018 1933,-613 2853,-763 199,-85 403,-167 607,-248 382,-152 764,-304 1134,-491 -723,82 -1448,111 -2174,140l-74 3c-678,27 -1358,56 -2040,130 -394,152 -719,429 -1162,492 -564,81 -1317,-181 -1881,-101 792,-510 1811,-671 3026,-527zm4947 1977c537,-19 1090,-26 1649,-32 835,-9 1682,-18 2504,-74 -312,-70 -630,-167 -910,-253l-90 -27c-964,120 -1774,-387 -2658,-174 926,-792 1811,-414 2694,42l93 29c447,136 993,303 1446,334 1022,-103 1992,-298 2838,-682 35,-16 75,0 91,34 15,34 0,75 -34,90 -849,385 -1816,584 -2833,689 777,1002 -334,1236 -1079,1653 -267,-727 -69,-1309 941,-1639 -495,47 -1000,73 -1510,88 -172,1556 -1656,1037 -2476,1569 -16,-867 753,-1352 2095,-1558 -371,8 -742,12 -1111,16 -464,5 -924,10 -1376,23 -1136,473 -2325,527 -3594,-21 1050,-416 2156,-455 3320,-107zm-1079 -3452c-521,-796 -1423,-1279 -2720,-1437 638,821 1580,1255 2720,1437zm-907 257c-1277,-257 -2144,291 -3832,-770 1278,257 2795,-34 3832,770zm-1881 3781c-828,-566 -1819,-866 -3011,-838 927,812 1946,983 3011,838zm1768 -25533c-1855,197 -2972,1216 -3349,3059 1643,-377 2985,-1122 3349,-3059zm-4706 -1180c-903,1632 -709,3131 585,4497 634,-1562 792,-3089 -585,-4497zm-1281 3144c-768,2005 -307,3682 1385,5032 473,-1882 410,-3646 -1385,-5032zm4972 831c-2031,694 -3025,2122 -2978,4287 1748,-843 3064,-2021 2978,-4287zm-481 3197c-1761,1228 -2322,2875 -1679,4943 1448,-1292 2387,-2788 1679,-4943zm-5293 185c-153,2142 776,3613 2787,4413 -94,-1938 -667,-3608 -2787,-4413zm752 4319c225,2135 1396,3421 3517,3856 -432,-1891 -1288,-3436 -3517,-3856zm4884 -1012c-1353,1667 -1437,3405 -248,5214 1034,-1641 1523,-3338 248,-5214zm1417 3050c-1006,1897 -753,3618 763,5164 698,-1811 850,-3570 -763,-5164zm-4573 2336c830,1980 2503,3029 4660,2836 -959,-1687 -2405,-3075 -4660,-2836zm2683 3865c1395,1632 3309,2121 5303,1277 -1428,-1313 -3229,-2193 -5303,-1277zm4097 -3665c-598,2062 2,3695 1801,4899 314,-1915 104,-3669 -1801,-4899zm2791 2005c-332,2120 469,3665 2407,4631 69,-1939 -362,-3651 -2407,-4631zm-3270 4085c1538,1498 3488,1811 5398,790 -1542,-1178 -3415,-1891 -5398,-790z"/>
   <path class="fil1" d="M33023 6443c1889,633 2817,1950 2783,3952 -1627,-772 -2853,-1856 -2783,-3952zm1657 30776l-444 74c-79,-43 -158,-89 -237,-139 -115,-71 -208,-129 -303,-188 -503,-315 -1017,-637 -1554,-899 148,5 303,9 465,13 214,4 440,6 680,6 1093,760 1773,150 2673,270 -584,-550 -1546,-524 -2570,-406 -277,0 -537,-2 -781,-7 -282,-5 -544,-14 -792,-25 -322,-139 -653,-252 -996,-327 -37,-8 -73,16 -81,53 -8,37 15,73 52,81 327,71 645,179 955,312 43,127 56,262 69,397 15,155 29,310 87,461 49,128 139,244 228,360 61,78 121,156 165,235 43,443 -510,954 709,1261 225,-721 19,-1184 -623,-1384 -43,-66 -92,-131 -142,-195 -83,-108 -166,-216 -208,-326 -52,-135 -66,-280 -80,-424 -9,-105 -19,-210 -43,-313 594,271 1161,626 1714,972 108,68 217,136 303,189 78,49 156,94 234,138l100 327c-592,487 -303,937 669,1358 238,-334 111,-769 -619,-1372l-85 -277c145,79 289,152 431,225 506,258 1000,509 1488,1019 -207,1017 1125,857 1654,1312 -64,-600 -544,-1064 -1518,-1369 -41,-43 -82,-85 -123,-125l1131 99c676,491 1544,644 2588,488 -655,-506 -1526,-668 -2578,-539l-1200 -106c-323,-305 -648,-511 -977,-691l709 -8c463,456 1201,607 2277,386 -789,-548 -1485,-616 -2132,-440l-948 12c-102,-54 -205,-107 -308,-159 -136,-69 -273,-139 -411,-214l486 -82c707,197 1389,251 1990,-178 -828,-271 -1531,-207 -2130,137l26 8zm1058 -4281c-554,-60 -1105,-90 -1655,-114 96,-30 193,-61 290,-94 187,-63 372,-130 557,-202 1053,10 2119,-67 3297,-808 -1152,-122 -2230,150 -3266,649 -212,85 -423,161 -631,231 -221,75 -444,143 -668,207l-58 -3c-1032,-41 -2060,-81 -3083,-274 168,-57 344,-107 525,-152 211,-52 429,-97 652,-137 736,484 1419,85 2132,180 -439,-442 -1290,-458 -2302,-308 6,6 13,11 20,16 -182,35 -360,73 -534,116 -268,66 -525,144 -765,239l-1 0c-571,159 -1096,381 -1617,601 -1096,465 -2177,924 -3635,748 -38,-5 -72,22 -76,60 -5,37 22,71 60,75 1493,181 2592,-285 3705,-757 104,-44 207,-87 311,-131 283,14 562,45 835,96 162,31 322,69 480,114 399,1147 1299,667 1973,893 -492,-710 -1124,-1061 -1910,-1017 -170,-50 -343,-91 -517,-124 -189,-35 -381,-62 -575,-79 320,-129 648,-248 990,-344 255,54 510,98 765,134 474,272 970,469 1466,666 181,72 363,143 545,220 546,835 2011,409 2980,664 -888,-1018 -1941,-613 -2865,-764 -199,-85 -404,-166 -609,-247 -383,-152 -767,-304 -1139,-491 727,82 1454,111 2184,140l74 3c680,27 1363,56 2049,130 395,152 721,429 1165,492 567,80 1323,-182 1890,-101 -796,-510 -1819,-671 -3039,-527zm-4967 1977c-539,-20 -1095,-26 -1655,-32 -839,-9 -1690,-18 -2515,-75 313,-69 633,-166 914,-252l91 -27c967,120 1780,-387 2668,-175 -930,-791 -1819,-413 -2705,43l-94 29c-448,136 -996,303 -1451,334 -1026,-103 -2000,-298 -2850,-683 -35,-15 -75,0 -91,35 -15,34 0,75 34,90 853,385 1823,584 2844,689 -780,1002 336,1236 1084,1653 268,-727 69,-1310 -945,-1639 497,47 1005,73 1516,88 173,1556 1663,1037 2486,1568 16,-866 -756,-1351 -2103,-1557 372,8 745,12 1116,16 465,5 928,10 1381,23 1140,473 2335,527 3609,-22 -1054,-415 -2165,-454 -3334,-106zm1083 -3452c523,-796 1430,-1279 2731,-1437 -640,821 -1586,1255 -2731,1437zm911 257c1282,-257 2153,291 3847,-770 -1282,256 -2805,-34 -3847,770zm1889 3781c831,-566 1826,-867 3023,-839 -931,813 -1954,984 -3023,839zm-1775 -25533c1862,197 2984,1215 3362,3059 -1650,-377 -2997,-1123 -3362,-3059zm4725 -1180c906,1632 711,3131 -588,4497 -636,-1563 -795,-3089 588,-4497zm1286 3144c771,2005 309,3682 -1391,5032 -475,-1882 -411,-3647 1391,-5032zm-4993 831c2040,693 3038,2122 2991,4286 -1755,-842 -3076,-2020 -2991,-4286zm484 3197c1768,1228 2331,2875 1685,4943 -1453,-1293 -2396,-2788 -1685,-4943zm5314 185c153,2141 -778,3613 -2799,4413 95,-1938 670,-3609 2799,-4413zm-755 4319c-226,2134 -1402,3421 -3531,3856 434,-1891 1294,-3436 3531,-3856zm-4904 -1012c1359,1667 1444,3404 250,5214 -1039,-1642 -1530,-3339 -250,-5214zm-1422 3050c1010,1896 756,3618 -766,5164 -701,-1811 -854,-3570 766,-5164zm4591 2336c-834,1979 -2514,3029 -4679,2835 963,-1687 2415,-3074 4679,-2835zm-2694 3865c-1400,1632 -3322,2120 -5324,1277 1434,-1313 3241,-2193 5324,-1277zm-4113 -3665c600,2061 -2,3695 -1809,4899 -315,-1915 -104,-3669 1809,-4899zm-2803 2005c333,2120 -471,3665 -2416,4631 -69,-1939 363,-3652 2416,-4631zm3283 4085c-1544,1498 -3502,1811 -5419,790 1548,-1178 3428,-1891 5419,-790z"/>
   <path class="fil3" d="M17073 31500c297,46 599,61 905,48 -5,-187 -11,-374 -17,-562 -555,88 -843,262 -888,514z"/>
   <path class="fil0" d="M17893 30808c-930,-5 -1869,73 -2818,226 9,133 18,265 27,397 601,344 1234,528 1852,439 5,-202 16,-323 21,-526 244,-208 569,-350 986,-412 -23,-41 -46,-82 -68,-124z"/>
   <path class="fil4" d="M17952 31548c543,42 1086,84 1629,126 766,-193 1533,-386 2299,-580 346,-1076 693,-2153 1040,-3230 -1445,-21 -3099,-198 -4982,-547 5,1410 10,2821 14,4231z"/>
   <path class="fil1" d="M17952 31548c543,42 1086,84 1629,126 766,-193 1533,-386 2299,-580 346,-1076 693,-2153 1040,-3230 -1445,-21 -3099,-198 -4982,-547 5,1410 10,2821 14,4231z"/>
   <path class="fil5" d="M18922 27002l506 342c-68,1302 -136,2603 -205,3904 -203,-46 -404,-101 -602,-174l-41 -3141 342 -931z"/>
   <polygon class="fil6" points="22618,27857 22331,27847 21423,30981 21654,30925 "/>
   <path class="fil7" d="M17935 30932c6,205 12,411 17,616 447,-12 901,-66 1360,-149 -468,-104 -927,-253 -1377,-467z"/>
   <path class="fil5" d="M19772 27613c1050,163 2099,237 3148,251 93,-280 186,-560 280,-840 157,-98 413,-204 123,-506 -366,-381 -73,-494 -917,-574 -79,-7 -702,-795 -1384,-496 -304,133 -1007,-475 -1504,-134 -716,145 -1322,-18 -1762,756 -399,702 93,905 65,1570 -14,330 161,1540 616,1492 421,0 601,-77 644,-591 38,-450 -151,-524 307,-699 280,-107 205,-8 384,-229z"/>
   <path class="fil8" d="M19772 27613c152,-215 383,-319 475,-498 206,-403 392,-612 895,-652 462,-38 661,-254 1079,17 87,56 354,-32 376,24 -264,0 -269,131 -594,-30 -157,-78 -573,78 -830,78 -724,0 -663,625 -1142,894 -85,48 -182,136 -259,167z"/>
   <path class="fil8 str0" d="M18702 29113c82,-119 144,-62 215,-357 54,-226 50,-173 73,-420 21,-219 37,-518 302,-580 429,-101 248,-316 576,-510 167,-100 -33,-643 177,-830 197,-175 463,-209 732,-172 183,25 198,96 452,96 -271,129 -589,-76 -939,396 -160,216 -302,561 -505,789 -264,296 -46,192 -496,370 -275,108 -243,443 -243,717 0,191 -121,413 -322,457 -20,5 -20,29 -22,44z"/>
   <path class="fil1" d="M15143 32184c-14,-173 -27,-346 -41,-520 3604,1556 7154,-392 9909,-794 -41,420 -82,840 -123,1259 -3232,488 -6477,589 -9745,55z"/>
   <path class="fil1" d="M17956 30809c3,82 7,35 11,118 -509,98 -855,364 -894,573 2007,319 5328,-949 7993,-1218 -14,132 -28,264 -41,397 -2687,451 -5265,1601 -8062,1355 -4,-78 -5,-86 -9,-164 -665,124 -1261,-193 -1852,-439 -9,-132 -18,-264 -27,-396 960,-152 1920,-239 2881,-226z"/>
   <path class="fil9" d="M15067 30990c524,-85 1015,-142 1482,-177 467,-35 912,-49 1344,-50l26 -1 111 200 -57 14c-266,69 -473,149 -619,241 -118,75 -193,156 -224,245 1178,168 2887,-214 4635,-604 1126,-252 2267,-507 3296,-621l10 90c-1026,115 -2164,369 -3286,620 -1781,397 -3523,786 -4719,598l-46 -7 8 -46c24,-133 117,-250 278,-352 142,-90 339,-169 587,-237l-27 -50c-419,2 -853,16 -1310,51 -467,35 -955,91 -1474,175l-15 -89z"/>
   <path class="fil0" d="M22003 30712l426 -1324c437,0 187,-40 594,74 28,8 39,5 67,5 0,228 -50,272 -220,417 -67,57 -314,191 -314,267 55,0 424,-12 389,54 -160,294 -408,479 -751,466 -37,-1 -161,16 -191,41z"/>
   <path class="fil0" d="M22461 29289l140 -434c64,-7 452,-18 436,6 -67,104 -39,326 -276,401 -145,45 -148,24 -300,27z"/>
   <path class="fil1" d="M23432 29269c-203,-66 -346,190 -462,81 -6,-6 -40,-16 -65,-33 151,-61 -7,-302 403,-302 172,0 343,0 514,0 -2,68 -118,315 -255,450 -86,85 -193,81 -244,102 -128,53 500,270 547,270 -30,133 -325,553 -513,561 -78,4 -317,116 -479,116 109,-109 82,-320 260,-333 63,-5 240,-145 301,-187 -67,13 -589,121 -630,48 265,43 395,-341 377,-555 31,-15 242,-218 246,-218z"/>
   <path class="fil0" d="M22643 28723l257 -795c121,96 181,670 -130,719 -8,14 -105,75 -127,76z"/>
   <path class="fil1" d="M22933 28728c238,-190 232,-632 20,-838 -20,-19 13,-26 -33,-26 111,-106 52,-536 256,-195 60,100 97,167 119,286 53,-2 234,-219 610,-219 207,0 427,-14 622,-14 -463,493 -140,709 -409,988 -43,45 -102,92 -145,155 -219,0 -423,55 -602,55 119,-5 335,-305 342,-514 -37,149 -395,414 -520,431 0,-243 -42,-109 -260,-109zm1341 510c47,-87 172,-288 171,-288 -131,22 -92,83 -328,48 -33,-5 -160,0 -192,7 -32,101 -26,160 -114,246 -30,30 423,-13 463,-13zm164 144c-1,20 -216,440 -315,445 -36,2 -347,-13 -206,-50 31,-9 296,-293 151,-216 -283,149 -165,201 -464,109 -24,-7 -13,7 -35,-35 268,-26 109,-439 869,-253zm-807 992c45,-63 200,-165 257,-321 72,-197 338,-40 491,-143 4,-3 25,-1 32,-1 0,85 -97,396 -185,396 -272,0 -279,68 -175,-68 127,-166 113,-235 -76,-72 -192,164 53,120 -249,167 -10,2 -20,14 -54,14l-41 28z"/>
   <path class="fil10" d="M19935 33209l15 0 63 32c42,21 70,35 83,41 14,7 60,28 138,64 79,36 119,54 122,55 2,0 23,9 62,25 39,17 69,29 90,37 21,8 52,20 92,33 39,14 65,23 75,27 10,3 24,8 39,13 16,5 36,11 61,18 25,8 57,16 95,26 38,11 75,20 111,28 36,8 60,13 70,15 10,2 44,8 100,19 56,10 92,16 106,18 14,2 49,8 105,17 55,8 83,13 84,13 1,0 28,5 81,15 53,10 80,15 81,16l0 0 -3 163c-2,109 -8,249 -17,421 -9,172 -16,292 -22,361 -5,68 -11,127 -18,176 -6,48 -14,95 -23,139 -9,43 -19,87 -29,132 -11,44 -20,83 -29,117 -8,33 -18,69 -29,108 -11,39 -18,62 -20,70 -2,8 -6,18 -10,30 -5,13 -10,28 -16,46 -6,18 -15,45 -28,79 -13,34 -23,62 -32,82 -8,20 -18,45 -30,73 -12,28 -27,63 -46,103 -19,40 -30,63 -34,70 -4,6 -17,30 -41,71 -24,42 -38,66 -43,74 -5,7 -16,27 -35,58 -18,30 -30,50 -36,59 -5,8 -14,21 -26,39 -11,18 -21,32 -28,41 -7,10 -15,22 -25,35 -9,14 -18,26 -26,38 -9,11 -16,20 -21,28 -5,8 -12,17 -21,30 -10,11 -19,23 -27,36 -9,11 -18,24 -28,37 -11,13 -19,23 -26,32 -7,10 -22,27 -46,52 -23,26 -51,55 -82,88 -32,33 -59,61 -83,84 -24,23 -40,38 -48,44 -8,7 -26,22 -55,47 -29,25 -47,41 -53,46 -7,6 -22,19 -47,41 -26,21 -42,35 -50,41 -8,6 -17,14 -27,22 -10,8 -24,20 -42,34 -18,15 -32,26 -41,33 -10,7 -19,13 -27,18 -9,6 -25,15 -48,29 -23,13 -37,22 -45,27 -7,5 -15,10 -24,15 -9,5 -18,11 -28,17 -10,7 -17,11 -21,14 -5,3 -15,8 -30,16 -15,7 -33,15 -54,25 -21,9 -35,15 -43,18l-13 5 -13 -3c-9,-3 -19,-6 -30,-12 -10,-5 -28,-13 -53,-26 -24,-12 -39,-20 -42,-23 -4,-3 -14,-9 -29,-19 -16,-10 -27,-17 -35,-22 -8,-4 -23,-14 -46,-27 -23,-13 -39,-23 -47,-28 -9,-6 -18,-12 -27,-19 -10,-7 -21,-15 -32,-25 -13,-9 -28,-22 -48,-38 -20,-17 -38,-31 -52,-43 -15,-12 -36,-30 -64,-55 -28,-24 -47,-39 -54,-45 -8,-7 -26,-21 -52,-44 -27,-23 -42,-36 -45,-39 -3,-3 -16,-16 -40,-39 -23,-23 -40,-39 -49,-49 -9,-10 -30,-32 -62,-66 -32,-33 -51,-54 -57,-62 -7,-7 -16,-19 -28,-34 -13,-15 -23,-27 -30,-36 -7,-9 -14,-18 -21,-28 -7,-10 -15,-20 -23,-31 -8,-10 -15,-20 -21,-28 -6,-8 -12,-16 -16,-23 -5,-6 -11,-15 -19,-25 -8,-11 -15,-20 -20,-29 -6,-8 -13,-19 -23,-33 -9,-13 -16,-23 -21,-31 -5,-8 -13,-20 -24,-36 -11,-17 -18,-28 -21,-34 -4,-6 -13,-22 -28,-47 -16,-25 -26,-42 -31,-49 -5,-8 -17,-29 -36,-63 -20,-34 -34,-60 -44,-78 -10,-17 -19,-34 -26,-49 -8,-15 -18,-38 -32,-69 -13,-30 -20,-46 -20,-47 0,-1 -7,-17 -20,-50 -14,-33 -24,-59 -32,-78 -7,-19 -18,-47 -31,-86 -14,-39 -27,-80 -41,-123 -13,-44 -28,-97 -45,-160 -16,-63 -28,-109 -35,-140 -6,-31 -16,-75 -28,-133 -12,-59 -19,-97 -21,-115 -2,-18 -7,-74 -15,-167 -7,-93 -12,-164 -14,-211 -3,-48 -5,-98 -8,-151 -3,-53 -7,-140 -13,-261 -5,-121 -8,-207 -8,-257l0 -75 8 -4c5,-3 18,-6 40,-9 22,-4 51,-9 90,-15 38,-6 96,-15 174,-28 78,-13 134,-23 168,-29 34,-5 78,-15 134,-27 56,-12 104,-24 144,-35 41,-11 75,-21 105,-30 29,-10 52,-17 68,-22 17,-5 33,-10 48,-16 15,-5 45,-16 90,-32 45,-17 87,-34 126,-51 40,-17 61,-26 63,-27 3,0 22,-8 57,-24 36,-16 67,-31 96,-44 28,-13 57,-26 84,-39 28,-13 63,-30 104,-51l62 -32 14 0z"/>
   <path class="fil1" d="M19985 33019l15 0 68 34c46,23 76,38 90,45 15,7 64,30 149,69 85,39 128,59 131,59 3,1 25,10 68,28 42,18 74,31 97,40 23,8 55,20 98,35 43,15 70,25 82,29 11,4 25,8 42,14 17,5 39,12 66,20 26,8 61,17 102,28 41,11 81,21 120,30 39,8 64,14 75,16 12,3 48,9 109,20 60,11 98,18 114,20 15,3 53,8 113,18 60,9 90,14 91,14 1,0 30,5 87,17 58,11 87,16 87,17l1 0 -4 176c-2,117 -8,269 -18,454 -10,186 -18,316 -23,390 -6,74 -12,137 -20,189 -7,53 -15,103 -25,150 -10,47 -20,95 -32,143 -11,48 -21,90 -30,126 -9,36 -19,75 -32,117 -12,42 -19,67 -21,76 -3,8 -7,19 -11,32 -5,14 -11,31 -17,50 -7,20 -17,48 -31,85 -14,37 -25,66 -34,89 -9,21 -20,48 -33,79 -13,30 -29,67 -49,110 -21,44 -33,69 -37,76 -4,7 -19,33 -44,77 -26,44 -41,71 -46,79 -6,8 -18,29 -38,63 -20,33 -33,54 -39,63 -6,9 -15,23 -28,43 -12,19 -23,34 -30,45 -8,10 -17,23 -27,37 -10,15 -20,28 -29,41 -9,12 -17,22 -22,30 -5,9 -13,19 -23,32 -10,13 -20,26 -29,39 -9,13 -20,26 -31,40 -10,14 -20,26 -27,36 -8,9 -25,28 -50,55 -25,28 -54,60 -89,95 -33,35 -63,65 -89,91 -26,25 -43,41 -52,47 -9,7 -28,24 -60,51 -31,27 -50,44 -57,50 -7,6 -24,20 -51,43 -27,24 -45,38 -53,45 -9,7 -18,15 -29,24 -11,9 -26,21 -46,37 -19,16 -34,27 -44,35 -10,7 -20,14 -29,20 -10,6 -27,16 -51,30 -25,15 -41,25 -49,30 -8,5 -16,10 -26,16 -10,5 -20,12 -30,19 -11,7 -19,12 -24,15 -4,3 -15,9 -31,17 -16,7 -36,17 -58,27 -23,10 -39,17 -48,20l-13 5 -15 -4c-9,-2 -20,-6 -31,-12 -12,-5 -31,-15 -57,-28 -27,-13 -43,-22 -47,-25 -4,-3 -14,-10 -31,-21 -16,-10 -29,-18 -37,-23 -9,-5 -25,-15 -50,-30 -25,-14 -42,-24 -51,-30 -9,-6 -19,-13 -29,-20 -10,-8 -22,-17 -35,-27 -13,-10 -30,-24 -51,-42 -22,-17 -41,-33 -56,-46 -16,-13 -39,-32 -70,-59 -30,-26 -49,-43 -58,-49 -8,-7 -27,-23 -56,-47 -29,-25 -45,-39 -48,-42 -3,-3 -17,-18 -43,-42 -26,-25 -43,-43 -53,-53 -11,-11 -33,-34 -67,-71 -35,-37 -55,-59 -62,-67 -7,-9 -17,-21 -31,-37 -13,-16 -23,-29 -31,-39 -8,-10 -16,-20 -23,-30 -8,-11 -16,-22 -25,-34 -8,-11 -16,-21 -23,-30 -7,-9 -12,-17 -17,-24 -5,-7 -12,-17 -20,-28 -9,-11 -16,-22 -22,-31 -6,-9 -14,-21 -24,-35 -11,-15 -18,-26 -24,-34 -5,-9 -13,-22 -25,-39 -12,-18 -20,-30 -23,-37 -4,-7 -14,-23 -30,-51 -17,-27 -28,-44 -33,-52 -6,-9 -19,-31 -40,-68 -21,-37 -37,-65 -47,-84 -11,-19 -20,-37 -28,-53 -8,-17 -20,-42 -34,-74 -15,-34 -22,-51 -22,-51 0,-1 -7,-19 -22,-55 -14,-35 -26,-63 -34,-83 -8,-21 -19,-52 -34,-94 -15,-41 -29,-86 -44,-133 -14,-47 -30,-104 -48,-172 -18,-68 -31,-118 -38,-151 -7,-33 -17,-81 -30,-144 -13,-63 -21,-104 -23,-124 -3,-20 -8,-80 -16,-180 -8,-101 -13,-177 -16,-228 -2,-51 -5,-105 -8,-163 -4,-57 -8,-151 -14,-282 -5,-130 -8,-223 -8,-277l0 -81 7 -4c6,-3 20,-6 44,-11 23,-3 56,-9 97,-15 41,-6 104,-16 188,-31 84,-14 145,-24 181,-30 37,-7 85,-16 145,-30 60,-13 112,-26 155,-37 44,-12 82,-23 113,-34 32,-10 57,-17 74,-23 18,-6 35,-11 51,-17 17,-5 49,-17 98,-35 48,-18 94,-36 136,-55 43,-18 66,-28 68,-28 3,0 24,-9 62,-27 38,-17 72,-33 103,-47 31,-14 61,-28 91,-42 30,-14 67,-33 112,-56l67 -34 16 0z"/>
   <path class="fil3 str1" d="M19994 33190l14 0 63 31c42,21 70,35 84,42 13,6 59,28 138,64 78,36 119,54 121,54 3,1 24,9 63,26 39,17 69,29 90,37 21,8 51,19 91,33 40,14 65,22 75,26 11,4 24,8 40,13 15,5 36,12 61,19 24,7 56,16 94,26 38,10 75,19 112,27 35,8 59,14 69,16 11,2 44,8 100,18 57,10 92,17 106,19 15,2 49,7 105,16 55,9 84,13 84,13 1,0 28,5 81,16 54,10 81,15 81,16l0 0 -3 163c-2,108 -8,249 -17,421 -9,172 -16,292 -21,360 -5,69 -11,127 -18,176 -7,49 -15,95 -24,139 -9,44 -19,88 -29,132 -11,45 -20,84 -28,117 -9,34 -18,70 -29,108 -12,39 -19,62 -21,70 -2,8 -5,18 -10,31 -4,12 -10,27 -16,46 -6,18 -15,44 -28,79 -13,34 -23,61 -31,82 -9,20 -19,44 -31,73 -12,28 -27,62 -46,103 -19,39 -30,63 -34,69 -3,7 -17,31 -41,72 -23,41 -38,65 -43,73 -4,8 -16,27 -34,58 -19,31 -31,51 -36,59 -6,9 -15,22 -26,40 -12,17 -21,31 -28,41 -8,10 -16,21 -25,35 -10,13 -19,26 -27,37 -9,12 -16,21 -20,28 -5,8 -13,18 -22,30 -9,12 -18,24 -27,36 -9,12 -18,24 -28,37 -10,13 -19,24 -26,33 -7,9 -22,26 -46,52 -23,25 -50,54 -82,87 -31,33 -59,61 -83,84 -24,24 -40,39 -48,45 -8,6 -26,22 -55,47 -29,25 -46,40 -53,46 -6,5 -22,19 -47,40 -25,22 -42,35 -50,42 -8,6 -17,13 -27,21 -10,9 -24,21 -42,35 -18,15 -32,25 -41,32 -9,7 -18,13 -27,19 -9,5 -24,15 -47,28 -23,14 -38,23 -45,27 -7,5 -16,10 -25,15 -9,5 -18,11 -28,18 -9,6 -17,11 -21,14 -5,3 -14,8 -29,15 -15,7 -33,16 -54,25 -21,10 -36,16 -44,19l-13 4 -13 -3c-9,-2 -19,-6 -29,-11 -11,-5 -29,-14 -53,-26 -25,-13 -39,-20 -43,-23 -4,-3 -13,-9 -29,-19 -15,-10 -27,-17 -35,-22 -8,-5 -23,-14 -46,-27 -23,-14 -39,-23 -47,-29 -9,-5 -18,-12 -27,-18 -9,-7 -20,-16 -32,-25 -12,-9 -28,-22 -48,-39 -20,-16 -37,-30 -52,-42 -14,-12 -36,-31 -64,-55 -28,-24 -46,-40 -54,-46 -8,-6 -25,-21 -52,-44 -26,-22 -41,-35 -44,-38 -3,-3 -17,-16 -40,-39 -24,-23 -40,-39 -50,-49 -9,-10 -30,-32 -62,-66 -32,-34 -51,-55 -57,-62 -6,-8 -16,-19 -28,-34 -13,-15 -22,-27 -30,-36 -7,-9 -14,-19 -21,-29 -7,-10 -14,-20 -22,-30 -8,-11 -15,-20 -22,-29 -6,-8 -12,-16 -16,-22 -5,-7 -11,-15 -19,-26 -8,-10 -14,-20 -20,-28 -5,-8 -13,-20 -23,-33 -9,-13 -16,-24 -21,-32 -5,-7 -13,-19 -23,-36 -11,-16 -18,-27 -22,-33 -3,-7 -13,-22 -28,-48 -15,-25 -26,-41 -30,-49 -5,-7 -17,-28 -37,-62 -19,-35 -34,-61 -44,-78 -10,-18 -18,-34 -26,-49 -7,-16 -18,-39 -31,-69 -14,-31 -21,-46 -21,-47 0,-1 -6,-18 -20,-50 -13,-33 -24,-59 -31,-78 -8,-19 -18,-48 -32,-86 -13,-39 -27,-80 -40,-124 -14,-44 -29,-97 -45,-159 -17,-63 -29,-110 -35,-140 -7,-31 -16,-76 -28,-134 -12,-58 -20,-96 -22,-114 -2,-19 -7,-74 -14,-168 -8,-93 -13,-163 -15,-210 -2,-48 -5,-98 -8,-151 -3,-53 -7,-141 -12,-261 -6,-121 -8,-207 -8,-257l0 -76 7 -4c5,-2 18,-5 40,-9 22,-4 52,-8 90,-14 38,-6 96,-16 175,-29 78,-13 134,-22 167,-28 34,-6 79,-15 134,-27 56,-13 104,-24 144,-35 41,-11 76,-22 105,-31 29,-9 52,-17 69,-22 16,-5 32,-10 47,-15 15,-5 45,-16 90,-33 45,-17 87,-33 127,-51 39,-17 60,-25 63,-26 2,0 21,-8 57,-24 35,-17 67,-31 95,-44 29,-13 57,-26 85,-40 27,-13 62,-30 103,-51l62 -31 15 0z"/>
   <path class="fil11" d="M19571 33948l-107 0c-107,0 -204,17 -293,52 -88,35 -164,84 -225,147 -61,62 -108,135 -139,216 -32,82 -48,170 -48,263 0,85 16,167 49,245 33,77 81,147 144,207 64,61 141,109 229,142 88,34 187,51 296,51 49,0 80,-1 94,-2l0 -11c-122,3 -230,-13 -325,-48 -94,-34 -173,-83 -234,-145 -62,-61 -108,-132 -138,-210 -30,-78 -45,-157 -45,-238 0,-79 13,-157 39,-234 26,-77 66,-147 121,-211 55,-65 125,-116 212,-154 87,-38 189,-57 306,-57l64 0 0 -13zm415 1089l-136 251c-59,-5 -101,-7 -127,-7 -33,0 -76,2 -131,7 -55,5 -98,8 -128,8 -124,0 -233,-20 -328,-58 -94,-38 -173,-89 -234,-154 -62,-65 -107,-137 -138,-216 -29,-78 -44,-157 -44,-238 0,-103 17,-198 52,-285 35,-87 85,-162 149,-224 64,-63 139,-111 224,-144 86,-33 177,-50 276,-50 25,0 41,0 48,0 7,1 22,2 44,2 23,1 45,2 69,4 82,5 145,7 189,7 98,0 162,-2 191,-7l11 307 -11 0 -61 -204c-18,-5 -50,-11 -97,-18 -46,-8 -92,-15 -136,-20 -44,-5 -90,-7 -138,-7 -126,0 -234,25 -323,76 -90,50 -157,121 -202,214 -45,92 -68,198 -68,318 0,93 17,179 49,258 32,78 77,145 135,200 58,56 124,98 198,126 74,29 153,43 235,43 82,0 158,-14 230,-41 71,-28 135,-79 191,-152l11 4zm-40 875l230 -33c10,-50 19,-136 25,-258 6,-122 9,-216 9,-284l0 -295c0,-83 -2,-162 -6,-238 -5,-76 -11,-136 -18,-181l-238 -32 0 -10 680 0c98,0 175,16 233,48 57,31 97,70 120,117 24,47 36,97 36,149 0,93 -31,166 -94,220 -61,54 -137,85 -225,93l0 3c91,5 169,24 234,57 64,34 113,77 146,130 33,53 49,109 49,170 0,51 -12,103 -38,157 -25,54 -71,100 -138,139 -67,38 -156,58 -269,58l-736 0 0 -10zm578 -1280c-46,0 -82,4 -106,11 -15,98 -23,214 -23,347 0,98 2,160 6,188 27,11 63,16 109,16 61,0 115,-11 163,-33 47,-22 85,-55 113,-99 27,-43 41,-98 41,-162 0,-49 -11,-94 -31,-135 -21,-40 -54,-72 -99,-97 -45,-24 -103,-36 -173,-36zm2 611c-59,0 -101,4 -125,13 -5,45 -7,117 -7,218 0,119 4,234 12,344 35,19 67,33 94,40 28,8 63,11 103,11 65,0 122,-11 170,-33 48,-22 86,-56 113,-100 27,-45 41,-99 41,-163 0,-64 -15,-121 -46,-171 -31,-49 -77,-88 -137,-117 -60,-28 -133,-42 -218,-42zm-290 -627l0 1270 64 0 0 -1270 -64 0zm313 -12l0 7c67,2 124,15 170,41 47,25 82,60 105,103 23,44 35,94 35,151 0,54 -11,101 -31,142 -20,40 -46,72 -78,95 -32,23 -65,39 -99,48l0 10c85,-12 151,-46 198,-102 48,-55 72,-122 72,-199 0,-47 -8,-90 -24,-127 -15,-37 -38,-68 -67,-95 -29,-25 -62,-45 -99,-58 -38,-13 -80,-20 -128,-20 -11,0 -29,1 -54,4zm102 622l0 7c54,10 104,29 151,57 47,29 85,67 114,115 28,48 42,105 42,172 0,54 -12,105 -35,152 -24,47 -62,87 -115,117 -53,30 -119,46 -198,46l0 7c9,2 28,4 54,4 77,0 143,-15 198,-46 55,-31 96,-71 123,-121 27,-51 41,-103 41,-160 0,-67 -15,-126 -44,-178 -28,-52 -71,-93 -127,-123 -57,-30 -125,-47 -204,-49z"/>
   <path class="fil0" d="M21211 15021l1509 0c941,21 1476,576 1455,1429 -35,713 -476,1043 -1074,1143 931,652 1040,2236 2012,2943 340,170 652,125 937,-124 64,0 128,0 192,0 -171,324 -433,573 -1006,568 -1446,-221 -1688,-2249 -2532,-3373 -114,0 -228,0 -342,0 0,-101 0,-201 0,-301 185,0 369,0 554,0 396,-69 645,-320 657,-863 15,-1054 -481,-1117 -985,-1266l-354 0 0 4015 486 0 0 156 -486 0 -538 0 -485 0 0 -156 485 0 0 -4015 -485 0 0 -156zm2437 1987c137,-419 148,-870 -7,-1362 427,414 341,1098 7,1362zm945 3384c-683,-458 -956,-1647 -1444,-2450 611,543 942,1716 1444,2450zm-2544 -5215l-168 0 0 4015 168 0 0 -4015z"/>
   <path class="fil0" d="M28575 14997l1177 0 0 156 -341 0c-48,26 -92,70 -105,164 -4,1011 -6,2023 -10,3034 -72,787 -445,1127 -1138,1148 -745,27 -1246,-415 -1316,-1158l0 -3188 -382 0 0 -156 1363 0 0 156 -443 0 0 3188c35,1259 1588,1131 1676,7 -1,-1008 -2,-2015 -3,-3022 -12,-84 -68,-132 -127,-173l-351 0 0 -156zm-1380 156c0,1011 0,2022 0,3032 -5,253 35,407 -2,386 -23,-14 -160,-163 -166,-386l0 -3032 168 0z"/>
   <path class="fil0" d="M17837 19351l2630 0c43,125 85,251 128,376 55,0 110,0 165,0 3,-538 5,-1077 8,-1615 -60,0 -69,0 -129,0 8,537 -118,909 -523,1083l-1239 0 0 -1979 529 0c150,288 172,611 157,945 39,-3 78,-5 117,-7 2,-685 4,-1369 6,-2053 -36,0 -73,0 -109,0 -14,336 -18,679 -171,903l-529 0 0 -1856 957 0c368,174 531,546 523,1083 55,0 110,0 164,0 -2,-539 -4,-1077 -6,-1615 -51,0 -101,0 -151,0 -39,125 -78,251 -116,376l-2394 0 0 156 486 0 0 4047 -503 0 0 156zm688 -4203l168 0 0 4015 -168 0 0 -4015z"/>
   <path class="fil0" d="M7932 19178l486 0 0 -4015 -486 0 0 -156 1509 0 0 156 -486 0 0 4015 486 0 0 156 -486 0 -537 0 -486 0 0 -156zm671 0l168 0 0 -4015 -168 0 0 4015z"/>
   <path class="fil0" d="M24615 19172l486 0 0 -4016 -486 0 0 -155 1509 0 0 155 -486 0 0 4016 486 0 0 155 -486 0 -537 0 -486 0 0 -155zm671 0l167 0 0 -4016 -167 0 0 4016z"/>
   <path class="fil0" d="M14365 19165l486 0 0 -4016 -486 0 0 -155 1509 0c1028,-40 1705,639 1682,1565 -38,773 -517,1131 -1166,1239 -87,13 -258,30 -430,15l-572 0 0 1352 486 0 0 155 -486 0 -537 0 -486 0 0 -155zm670 0l168 0 0 -4016 -168 0 0 4016zm353 -4016l0 2415 802 0c429,-74 803,-424 816,-1013 17,-1143 -478,-1332 -1203,-1402l-415 0zm1700 2015c148,-455 160,-944 -8,-1478 464,449 369,1191 8,1478z"/>
   <path class="fil0" d="M9978 15007l604 0 1300 3632 1337 -3631 701 1 0 130 -546 7 350 4032 451 0 0 156 -1480 0 0 -156 497 0 -207 -3020 -1176 3248 -127 0 -1215 -3299 -231 3071 580 0 0 156 -1173 0 0 -156 431 0 300 -4015 -396 0 0 -156zm543 804l19 -243 1144 3055 -54 137 -1109 -2949zm2996 3314l-288 -3607 -102 315 260 3292 130 0z"/>
   <path class="fil0" d="M19881 13746l-253 -424 -698 1177 184 61 767 -814zm-233 3l-44 -73 -230 361 274 -288z"/>
   <path class="fil0" d="M32058 14834c73,-5 146,-9 219,-14 14,443 28,886 41,1328 -89,0 -178,0 -267,0 -11,-244 -34,-482 -109,-698 -239,-261 -589,-431 -1020,-308 -367,142 -458,496 -287,883 404,743 1889,1261 1971,2231 56,855 -644,1313 -1342,1307 -418,-24 -786,-127 -1094,-479 -7,141 -14,283 -21,424 -73,0 -146,0 -219,0 -7,-497 -14,-995 -21,-1492 87,0 174,0 261,0 3,257 33,483 109,657 296,391 660,590 1102,561 480,-32 827,-474 554,-1019 -618,-851 -2016,-1298 -1854,-2553 132,-546 538,-805 1077,-818 328,-13 612,55 859,277 14,-95 28,-191 41,-287zm226 3753c-29,-1061 -1741,-1582 -1930,-2511 425,892 2197,1483 1930,2511z"/>
   <path class="fil12" d="M10930 9551c2495,-1153 5707,-1700 8914,-1701 3333,-2 6665,585 9187,1692l-73 167c-2500,-1097 -5805,-1679 -9114,-1678 -3182,2 -6367,543 -8838,1686l-76 -166z"/>
   <path class="fil12" d="M11166 9901c2437,-1126 5574,-1660 8706,-1662 3255,-2 6509,572 8972,1653l-73 166c-2441,-1071 -5668,-1639 -8899,-1637 -3107,1 -6217,530 -8630,1645l-76 -165z"/>
   <path class="fil11" d="M10515 38623l84 0c-1,88 -21,156 -60,203 -39,46 -95,69 -169,69 -78,0 -136,-29 -174,-88 -38,-60 -57,-151 -57,-274 0,-129 19,-223 56,-281 38,-57 98,-86 182,-86 69,0 123,18 161,55 37,37 56,89 56,158l0 8 -82 0c0,-48 -12,-85 -36,-112 -25,-27 -58,-41 -100,-41 -52,0 -90,23 -112,69 -23,46 -34,123 -34,229 0,105 11,179 35,223 23,44 62,66 115,66 44,0 77,-16 100,-48 24,-33 35,-79 35,-139l0 -11zm497 -15l202 0 -101 -365 -101 365zm-161 271l207 -696 109 0 211 696 -87 0 -57 -201 -242 0 -55 201 -86 0zm786 0l0 -696 352 0 0 70 -265 0 0 224 246 0 0 72 -246 0 0 330 -87 0zm614 0l0 -696 378 0 0 72 -293 0 0 224 274 0 0 70 -274 0 0 257 296 0 0 73 -381 0zm814 0l0 -625 -194 0 0 -71 464 0 0 71 -183 0 0 625 -87 0zm528 0l0 -696 378 0 0 72 -294 0 0 224 275 0 0 70 -275 0 0 257 297 0 0 73 -381 0zm756 -377l104 0c59,0 103,-11 131,-32 28,-20 42,-53 42,-97 0,-43 -12,-74 -37,-93 -25,-19 -65,-29 -120,-29l-120 0 0 251zm-83 377l0 -696 214 0c79,0 137,14 176,44 38,29 57,74 57,134 0,47 -11,84 -35,112 -23,28 -58,48 -107,59 43,3 74,16 95,37 21,22 34,55 39,101 2,17 3,40 5,70 6,76 19,122 41,139l-106 0c-10,-16 -17,-54 -20,-114 -2,-30 -3,-53 -5,-70 -5,-49 -18,-81 -41,-99 -22,-18 -63,-26 -121,-26l-109 0 0 309 -83 0zm768 0l0 -696 87 0 0 696 -87 0zm508 -271l203 0 -102 -365 -101 365zm-161 271l208 -696 108 0 211 696 -86 0 -58 -201 -241 0 -56 201 -86 0zm1091 -220l0 -81 244 0 0 81 -244 0zm1223 -36l84 0c-1,88 -21,156 -60,203 -39,46 -96,69 -169,69 -79,0 -137,-29 -174,-88 -38,-60 -57,-151 -57,-274 0,-129 19,-223 56,-281 38,-57 98,-86 181,-86 70,0 123,18 161,55 38,37 57,89 57,158l0 8 -82 0c0,-48 -12,-85 -37,-112 -24,-27 -58,-41 -100,-41 -52,0 -89,23 -112,69 -23,46 -34,123 -34,229 0,105 12,179 35,223 24,44 62,66 116,66 44,0 77,-16 100,-48 23,-33 35,-79 35,-139l0 -11zm388 256l0 -696 87 0 0 287 284 0 0 -287 87 0 0 696 -87 0 0 -339 -284 0 0 339 -87 0zm843 -348c0,112 12,189 35,232 23,43 64,64 121,64 58,0 99,-21 122,-63 23,-41 34,-119 34,-233 0,-114 -11,-192 -34,-233 -23,-42 -64,-63 -122,-63 -57,0 -98,22 -121,64 -23,43 -35,120 -35,232zm-88 0c0,-130 19,-223 58,-280 38,-57 100,-85 186,-85 87,0 149,28 187,84 38,57 57,150 57,281 0,131 -19,224 -57,280 -37,56 -100,84 -187,84 -85,0 -148,-28 -186,-86 -39,-57 -58,-150 -58,-278zm870 -15l112 0c52,0 89,-11 114,-34 24,-22 36,-58 36,-106 0,-44 -12,-76 -37,-96 -24,-20 -64,-30 -118,-30l-107 0 0 266zm-85 363l0 -696 196 0c83,0 143,15 182,46 38,31 57,81 57,148 0,69 -20,121 -60,156 -40,36 -98,53 -176,53l-114 0 0 293 -85 0zm714 0l0 -696 378 0 0 72 -294 0 0 224 274 0 0 70 -274 0 0 257 297 0 0 73 -381 0zm756 -377l103 0c60,0 104,-11 132,-32 27,-20 41,-53 41,-97 0,-43 -12,-74 -37,-93 -24,-19 -64,-29 -119,-29l-120 0 0 251zm-83 377l0 -696 214 0c78,0 137,14 175,44 38,29 58,74 58,134 0,47 -12,84 -35,112 -23,28 -59,48 -107,59 42,3 74,16 95,37 21,22 34,55 39,101 1,17 3,40 5,70 5,76 19,122 40,139l-105 0c-11,-16 -18,-54 -21,-114 -1,-30 -3,-53 -5,-70 -4,-49 -18,-81 -40,-99 -23,-18 -63,-26 -122,-26l-108 0 0 309 -83 0zm768 0l0 -696 87 0 0 696 -87 0zm507 -271l203 0 -101 -365 -102 365zm-160 271l207 -696 109 0 211 696 -87 0 -57 -201 -242 0 -55 201 -86 0zm1091 -220l0 -81 244 0 0 81 -244 0zm862 220l0 -696 378 0 0 72 -294 0 0 224 274 0 0 70 -274 0 0 257 297 0 0 73 -381 0zm657 -221l81 0 0 24c0,48 12,84 35,108 24,24 60,36 107,36 42,0 75,-12 99,-35 24,-23 36,-55 36,-96 0,-32 -7,-57 -22,-75 -14,-18 -48,-35 -99,-53 -12,-4 -29,-10 -52,-18 -61,-20 -99,-36 -111,-46 -22,-17 -37,-38 -48,-61 -10,-24 -15,-51 -15,-83 0,-60 18,-108 55,-142 36,-34 87,-51 153,-51 62,0 110,16 145,48 35,31 53,75 53,131 0,1 0,4 -1,8 0,5 0,7 0,9l-78 0 0 -7c0,-39 -11,-69 -32,-91 -21,-21 -50,-31 -88,-31 -40,0 -71,10 -94,30 -23,20 -34,48 -34,83 0,32 7,58 23,76 16,18 49,35 102,53 6,2 15,5 27,9 80,27 127,47 143,61 19,16 33,35 42,58 9,23 13,50 13,82 0,66 -20,118 -60,155 -40,36 -95,54 -166,54 -71,0 -125,-17 -161,-54 -36,-36 -54,-89 -54,-159 0,-3 0,-7 0,-12 0,-5 1,-9 1,-11zm820 -142l112 0c52,0 89,-11 114,-34 24,-22 36,-58 36,-106 0,-44 -12,-76 -37,-96 -24,-20 -63,-30 -118,-30l-107 0 0 266zm-84 363l0 -696 195 0c83,0 143,15 182,46 38,31 57,81 57,148 0,69 -20,121 -60,156 -40,36 -98,53 -176,53l-114 0 0 293 -84 0zm713 0l0 -696 378 0 0 72 -294 0 0 224 274 0 0 70 -274 0 0 257 297 0 0 73 -381 0zm814 0l0 -625 -195 0 0 -71 464 0 0 71 -182 0 0 625 -87 0zm562 -271l203 0 -102 -365 -101 365zm-161 271l208 -696 108 0 211 696 -86 0 -58 -201 -241 0 -56 201 -86 0zm869 -377l104 0c59,0 103,-11 131,-32 28,-20 42,-53 42,-97 0,-43 -12,-74 -37,-93 -25,-19 -65,-29 -120,-29l-120 0 0 251zm-83 377l0 -696 214 0c79,0 137,14 176,44 38,29 57,74 57,134 0,47 -11,84 -35,112 -23,28 -58,48 -106,59 42,3 73,16 94,37 22,22 34,55 39,101 2,17 4,40 5,70 6,76 19,122 41,139l-106 0c-10,-16 -17,-54 -20,-114 -2,-30 -3,-53 -5,-70 -5,-49 -18,-81 -41,-99 -22,-18 -63,-26 -121,-26l-109 0 0 309 -83 0zm768 0l0 -696 88 0 0 696 -88 0zm508 -271l203 0 -101 -365 -102 365zm-161 271l208 -696 108 0 211 696 -86 0 -58 -201 -241 0 -56 201 -86 0z"/>
  </g>
 </g>
</svg>
